<?xml version="1.0" encoding="utf-8"?>
<!-- Generator: Adobe Illustrator 24.0.3, SVG Export Plug-In . SVG Version: 6.00 Build 0)  -->
<svg version="1.1" id="Capa_1" xmlns="http://www.w3.org/2000/svg" xmlns:xlink="http://www.w3.org/1999/xlink" x="0px" y="0px"
	 viewBox="0 0 1100 220" style="enable-background:new 0 0 1100 220;" xml:space="preserve">
<style type="text/css">
	.st0{fill:#1C0E52;}
	.st1{fill:#1ECD7D;}
</style>
<g>
	<g>
		<g>
			<g>
				<circle class="st0" cx="352.9" cy="76.8" r="9.3"/>
				<polygon class="st0" points="294,74 280.8,74 280.8,161.5 336.8,161.5 336.8,148.7 294,148.7 				"/>
				<rect x="346.3" y="96.3" class="st0" width="13.2" height="65.2"/>
				<polygon class="st0" points="403.3,145.4 400.7,145.4 383.3,96.3 369.5,96.3 394.2,161.5 408.8,161.5 434.9,96.3 421.4,96.3 
									"/>
				<path class="st0" d="M494.9,104.4c-3-3-6.5-5.3-10.6-6.9c-4.1-1.6-8.5-2.5-13.3-2.5s-9.3,0.9-13.4,2.7
					c-4.1,1.8-7.7,4.2-10.7,7.2c-3.1,3.1-5.5,6.7-7.2,10.8c-1.7,4.1-2.6,8.6-2.6,13.5c0,4.8,0.8,9.2,2.5,13.3
					c1.6,4.1,4,7.7,7.1,10.7c3.1,3,6.7,5.4,10.9,7.1c4.2,1.7,9,2.6,14.2,2.6c7.1,0,13-1.4,17.9-4.3c4.8-2.9,8.8-6.7,12-11.4
					l-10.7-6.4c-1.9,3.1-4.4,5.7-7.5,7.6c-3.1,1.9-6.9,2.9-11.5,2.9c-6,0-11-1.6-14.9-4.8c-3.9-3.2-6.3-7.4-7.2-12.7h54.8v-5.4
					c0-4.8-0.8-9.3-2.5-13.3C500.2,110.9,497.9,107.4,494.9,104.4z M450.1,122.7c1.3-4.7,3.8-8.6,7.5-11.7c3.7-3,8.2-4.5,13.4-4.5
					c5.4,0,9.9,1.4,13.5,4.2c3.6,2.8,5.9,6.8,6.8,12H450.1z"/>
				<path class="st0" d="M669.4,102.2c-2.5-2.3-5.6-4.1-9.2-5.3c-3.7-1.2-7.8-1.9-12.5-1.9c-7,0-13,1.4-18.1,4.2
					c-5,2.8-9.2,6.4-12.4,10.6l11.6,6.8c1.9-3.2,4.3-5.8,7.5-7.7c3.1-1.9,6.9-2.8,11.2-2.8c5.8,0,10.1,1.4,12.8,4.1
					c2.7,2.7,4.1,6.3,4.1,10.6v1.1h-19.3c-9.2,0-16.4,1.9-21.6,5.7c-5.2,3.8-7.8,9.1-7.8,15.9c0,2.7,0.5,5.3,1.5,7.7
					c1,2.4,2.5,4.4,4.4,6.2c1.9,1.7,4.3,3.1,7.2,4c2.9,1,6.2,1.4,10,1.4c5.5,0,10.5-1.2,15-3.5c3.8-1.9,6.8-4.5,9.2-7.5h1.4v9.7H677
					v-40.3c0-3.9-0.6-7.5-1.9-10.7C673.8,107.2,671.9,104.5,669.4,102.2z M664.5,133.2c0,11.5-12,18.3-23.3,18.3
					c-8.5,0-12.1-3.6-12.1-9.1c0-9.6,11.2-10.1,16.9-10.1c4.1,0,18.5,0,18.5,0V133.2z"/>
				<path class="st0" d="M561.7,72.2c-25,0-45.2,20.3-45.2,45.2s20.2,45.2,45.2,45.2s45.2-20.3,45.2-45.2S586.7,72.2,561.7,72.2z
					 M561.7,150.1c-17.7,0-32.1-14.6-32.1-32.6c0-18,14.4-32.6,32.1-32.6c17.7,0,32.1,14.6,32.1,32.6
					C593.8,135.5,579.4,150.1,561.7,150.1z"/>
				<path class="st0" d="M1037.9,96.3l-24.7,26.9c-1.6,1.8-3.9,2.8-6.3,2.8h-7.5V74h-6.6v87.5h6.6v-29.7h7.5c2.4,0,4.7,1,6.3,2.8
					l24.7,26.9h8.6l-30.5-32.6l30.5-32.6H1037.9z"/>
				<path class="st0" d="M819.6,116.1c3.9-1.8,6.9-4.3,9.1-7.7c2.1-3.4,3.2-7.3,3.2-11.7c0-3.4-0.6-6.4-1.9-9.2
					c-1.2-2.8-3-5.1-5.3-7.1c-2.3-2-5-3.6-8.1-4.7c-3.1-1.1-6.6-1.7-10.3-1.7h-37v87.5h39c3.8,0,7.3-0.6,10.5-1.7
					c3.2-1.2,5.9-2.8,8.2-4.9c2.3-2.1,4.1-4.7,5.4-7.6c1.3-3,1.9-6.2,1.9-9.8c0-5.1-1.3-9.5-3.9-13.3
					C827.7,120.4,824.1,117.7,819.6,116.1z M776.2,80.4h30c2.7,0,5.2,0.4,7.5,1.3c2.3,0.8,4.3,2,5.9,3.4c1.7,1.4,3,3.2,3.9,5.2
					c0.9,2,1.4,4.2,1.4,6.5c0,2.3-0.4,4.5-1.2,6.5c-0.8,2-2,3.8-3.5,5.3c-1.5,1.5-3.4,2.6-5.5,3.5c-2.2,0.8-4.6,1.3-7.3,1.3h-31.2
					V80.4z M825.8,144.5c-1,2.2-2.3,4-4,5.6c-1.7,1.6-3.7,2.8-6.1,3.7c-2.4,0.9-4.9,1.4-7.7,1.4h-31.9v-35.6h31.8
					c6,0,10.7,1.7,14.1,5c3.4,3.4,5.2,7.6,5.2,12.8C827.2,140,826.8,142.3,825.8,144.5z"/>
				<path class="st0" d="M895.4,102.2c-2.3-2.1-5.2-3.8-8.7-5c-3.5-1.2-7.5-1.8-12-1.8c-6.5,0-12,1.2-16.5,3.5
					c-4.5,2.3-8.5,5.5-11.8,9.6l5.5,4.2c2.6-3.8,5.7-6.6,9.2-8.5c3.5-1.9,8-2.9,13.5-2.9c6.8,0,12,1.6,15.6,4.9
					c3.6,3.3,5.5,7.7,5.5,13.2v4h-21.9c-4.6,0-8.7,0.4-12.3,1.3c-3.6,0.9-6.7,2.2-9.3,4c-2.6,1.8-4.5,3.9-5.9,6.4
					c-1.4,2.5-2.1,5.5-2.1,8.8c0,2.5,0.5,4.9,1.4,7.1c0.9,2.3,2.3,4.3,4.3,6c1.9,1.7,4.3,3.1,7.3,4.1c2.9,1,6.4,1.6,10.4,1.6
					c5.7,0,11-1.1,16-3.3c5-2.2,9.1-5.3,12.2-9.4v11.5h6.7v-42.4c0-3.4-0.6-6.5-1.7-9.4C899.4,106.9,897.7,104.4,895.4,102.2z
					 M895.7,135.5c0,4.8-1.9,9.5-5.3,12.8c0,0,0,0-0.1,0.1c-2.1,2-4.3,3.6-6.8,4.9c-2.4,1.3-5,2.2-7.6,2.8c-2.6,0.6-5.2,0.9-7.8,0.9
					c-3,0-5.5-0.4-7.6-1.1c-2.1-0.7-3.9-1.7-5.3-2.9c-1.4-1.2-2.4-2.6-3.1-4.2c-0.6-1.6-1-3.3-1-5.2c0-4.8,1.9-8.4,5.7-10.8
					c3.8-2.4,9.4-3.7,17-3.7h21.8V135.5z"/>
				<path class="st0" d="M1061,145.4c-4.8,0-8.6,3.9-8.6,8.6c0,4.8,3.9,8.6,8.6,8.6c4.8,0,8.6-3.9,8.6-8.6
					C1069.6,149.3,1065.7,145.4,1061,145.4z M1061,161.7c-4.2,0-7.7-3.4-7.7-7.7s3.4-7.7,7.7-7.7c4.2,0,7.7,3.4,7.7,7.7
					S1065.2,161.7,1061,161.7z"/>
				<path class="st0" d="M1063.4,154.7c0.2-0.2,0.4-0.4,0.5-0.6c0.1-0.2,0.3-0.5,0.3-0.7c0.1-0.3,0.1-0.5,0.1-0.8
					c0-0.4-0.1-0.7-0.2-1.1c-0.1-0.3-0.3-0.6-0.6-0.9c-0.3-0.2-0.6-0.4-0.9-0.6c-0.4-0.1-0.7-0.2-1.2-0.2h-3.3v8.4h1v-2.9h2.6
					l1.6,2.9h1.1l-1.8-3.2C1062.9,155,1063.2,154.9,1063.4,154.7z M1061.4,154.5h-2.3v-3.7h2.3c0.3,0,0.6,0,0.8,0.1
					c0.2,0.1,0.5,0.2,0.6,0.4c0.2,0.2,0.3,0.4,0.4,0.6c0.1,0.2,0.1,0.5,0.1,0.7c0,0.2,0,0.5-0.1,0.7c-0.1,0.2-0.2,0.4-0.4,0.6
					c-0.2,0.2-0.4,0.3-0.6,0.4C1062,154.4,1061.8,154.5,1061.4,154.5z"/>
				<path class="st0" d="M969.5,103.4c-2.5-2.6-5.5-4.6-9-5.9c-3.5-1.4-7.4-2-11.7-2c-5.7,0-10.6,1.3-14.9,4
					c-3.4,2.1-6.1,4.7-8.1,7.7h-1.5V96.8h-6.5v64.7h6.7v-36.1c0-3.4,0.6-6.5,1.8-9.4c1.2-2.9,2.8-5.4,4.9-7.5c2.1-2.1,4.5-3.8,7.4-5
					c2.8-1.2,5.9-1.8,9.2-1.8c7.3,0,12.9,2.1,16.8,6.4c3.9,4.3,5.9,10,5.9,17.1v36.2h6.8v-36.2c0-4.6-0.7-8.8-2-12.5
					C973.9,109.2,972,106,969.5,103.4z"/>
				<path class="st0" d="M734.3,96.3L707.9,125c-0.6,0.6-1.4,1-2.3,1h-1.2V74h-12.9v87.5h12.9v-29.7h1.2c0.9,0,1.7,0.4,2.3,1
					l26.3,28.7h16.4l-30.5-32.6l30.5-32.6H734.3z"/>
			</g>
		</g>
	</g>
	<path class="st1" d="M238.2,104.2c-4.3,0-7.7,3.4-7.8,7.6c-1.4-1.2-3.2-2-5.2-2c-3.6,0-6.6,2.4-7.6,5.7c-3.3-0.5-6.3-1.3-8.5-2.7
		c-2.8-1.8-4.6-3.3-5.7-4.3c-0.8-0.7-0.8-1.9-0.1-2.7c1.7-2,3.9-4.4,6.3-6.2c1.4,1.5,3.4,2.4,5.6,2.4c2,0,3.9-0.8,5.3-2
		c1.2,2.9,4,4.9,7.3,4.9c4.3,0,7.9-3.5,7.9-7.9s-3.5-7.9-7.9-7.9c-2,0-3.9,0.8-5.3,2c-1.1-2.7-3.6-4.6-6.6-4.9
		c1.8-1.4,2.9-3.6,2.9-6.1c0-4.3-3.5-7.9-7.9-7.9s-7.9,3.5-7.9,7.9c0,4.1,3.1,7.5,7.1,7.8c-1.8,1.4-2.9,3.6-2.9,6.1
		c0,1.3,0.3,2.6,0.9,3.7c-2.2,1-4,2.1-5.1,2.9c-0.7,0.5-1.4,1.3-2.2,2.1c-1.6,1.6-3.4,3.5-4.9,3.6c-0.5,0-0.9,0-1.4-0.2
		c3-1.1,5.2-4,5.2-7.4c0-4.3-3.5-7.9-7.9-7.9s-7.9,3.5-7.9,7.9c0,2.4,1,4.5,2.7,5.9c-1.3,0.2-2.5,0.5-3.9,1.2c0-0.3,0.1-0.6,0.1-0.9
		c0-4.3-3.5-7.9-7.9-7.9s-7.9,3.5-7.9,7.9c0,3.4,2.2,6.4,5.3,7.4c-3.9,2.7-8.9,6.1-13.2,8.5c-0.3,0.2-1,0.5-1.4,0.1
		c-0.4-0.3-0.6-1.2-0.2-2.4c0.9-2.3,1.8-4.4,3.9-8.5c4.3-8.1,9.8-22.1,10.4-23.6c0.1-0.2,0.2-0.4,0.3-0.7c0.8-2.2,2-5.3,6.2-5.2
		c3,0.1,6.3,0,9-1.8c1.3,0.9,2.8,1.4,4.4,1.4c4.3,0,7.9-3.5,7.9-7.9s-3.5-7.9-7.9-7.9s-7.9,3.5-7.9,7.9c0,1.6,0.5,3.1,1.3,4.3
		c-2.1,1-4.6,1.5-8.1,0.6c-0.6-0.2-0.8-0.3-0.6-3.1c0.1-1.1,0.2-3,0.3-5.1c3.9-0.5,6.9-3.8,6.9-7.8c0-4.3-3.5-7.9-7.9-7.9
		s-7.9,3.5-7.9,7.9c0,3.5,2.3,6.5,5.5,7.5c-1.2,3.7-2.7,7.4-3.9,10.1c-1.4-2.2-3.8-3.6-6.6-3.6c-4.3,0-7.9,3.5-7.9,7.9
		s3.5,7.9,7.9,7.9c0.3,0,0.7,0,1-0.1c-0.9,2-1.8,4.1-2.9,6.5c-1.3-2.4-3.9-4-6.9-4c-4.3,0-7.9,3.5-7.9,7.9s3.5,7.9,7.9,7.9
		c0.4,0,0.8,0,1.2-0.1c-0.3,0.5-0.6,1.1-0.9,1.6c-0.1,0.2-0.2,0.4-0.3,0.6c-1.4,2.6-5.1,9.4-9.1,9.6c-1.7,0.1-5.8-1.5-10.2-4
		c4.3,0,7.8-3.5,7.8-7.9c0-4.3-3.5-7.9-7.9-7.9s-7.9,3.5-7.9,7.9c0,1.1,0.2,2.2,0.7,3.2c-2.1-1.6-3.9-3.3-5.1-4.9
		c-0.5-0.7-1.1-1.4-1.5-1.9c-0.3-0.3-0.5-0.6-0.7-0.9c-2.4-3-2.8-7.2-1-10.7c0.3-0.7,0.7-1.3,1-1.9c1.1,3.1,4,5.3,7.4,5.3
		c4.3,0,7.9-3.5,7.9-7.9s-3.5-7.9-7.9-7.9c-1.2,0-2.3,0.3-3.3,0.7c1.3-3.5,2.9-6.8,5.7-8.9c1.2-0.9,3.2-2.1,5.2-3.3
		c-0.3,0.8-0.4,1.6-0.4,2.5c0,4.3,3.5,7.9,7.9,7.9s7.9-3.5,7.9-7.9c0-3.7-2.5-6.8-6-7.6c5.1-2.5,11.1-5.9,13.9-8.1
		c0.5-0.4,1-0.8,1.5-1.3c1.5-1.4,3.5-3.1,6.5-4.3c1.4,1.4,3.4,2.3,5.5,2.3c4.3,0,7.9-3.5,7.9-7.9s-3.5-7.9-7.9-7.9s-7.9,3.5-7.9,7.9
		c0,1.3,0.3,2.5,0.8,3.5c-2.2,0.5-4.7,1.7-8.2,4.7c-2,1.6-2.5,1.9-5.7,3.8c-0.3,0.2-0.5,0.3-0.8,0.4c-0.6,0.3-1.1,0.3-1.4,0
		c-0.3-0.3-0.4-0.8-0.3-1.5c0.1-0.5,0.2-1.1,0.2-1.6c0.4,0.1,0.9,0.1,1.3,0.1c4.3,0,7.9-3.5,7.9-7.9s-3.5-7.9-7.9-7.9
		s-7.9,3.5-7.9,7.9c0,3,1.6,5.6,4.1,6.9c0,0.1-0.1,0.3-0.1,0.4c-0.7,2.6-1.1,4.4-3.3,5.6c-0.5,0.3-1,0.6-1.6,1
		c-0.6,0.4-1.3,0.9-1.9,1.2c-0.4,0.2-0.9,0.3-1.3,0.1c-0.4-0.2-0.8-0.5-0.9-0.9c-0.6-1.7-1.4-3.8-2.1-5.8c3.1-1.1,5.3-4,5.3-7.4
		c0-4.3-3.5-7.9-7.9-7.9s-7.9,3.5-7.9,7.9s3.5,7.9,7.9,7.9c0.2,0,0.3,0,0.5,0c1.1,4.4,2.2,9.6,1.5,10.2c-0.5,0.4-1.4,0.9-2.4,1.4
		c-2.3,1.2-5.5,2.8-7.8,5.5c-2.8,3.2-4,7.3-4.7,9.5c-0.2,0.5-0.3,0.9-0.4,1.2c-0.7,2-2.9,6.1-4.1,6.5c-0.3-0.1-1.1-1.2-2.6-9.8
		c0.8-1.2,1.3-2.7,1.3-4.3c0-1.4-0.4-2.7-1-3.9c1,0.4,2.1,0.7,3.2,0.7c4.3,0,7.9-3.5,7.9-7.9s-3.5-7.9-7.9-7.9
		c-3.7,0-6.7,2.5-7.6,5.9c-1.2-1.2-3.3-2.9-5.5-4.6c0.1-0.4,0.1-0.9,0.1-1.3c0-4.3-3.5-7.9-7.9-7.9s-7.9,3.5-7.9,7.9
		s3.5,7.9,7.9,7.9c3.2,0,5.9-1.9,7.1-4.5c1.7,1.9,3.3,3.8,4.1,5.8c0.2,0.6,0.5,1.2,0.6,2c-0.3,0-0.7-0.1-1-0.1
		c-4.3,0-7.9,3.5-7.9,7.9s3.5,7.9,7.9,7.9c0.9,0,1.8-0.2,2.6-0.4c0.2,2.7,0.5,6.5,0.3,7.2c-1.2,0.4-10.8-1.2-20.2-3
		c-0.1-4.3-3.6-7.7-7.9-7.7c-3.8,0-6.9,2.6-7.7,6.2c-1.4-2-3.8-3.3-6.4-3.3c-4.3,0-7.9,3.5-7.9,7.9s3.5,7.9,7.9,7.9
		c3.8,0,6.9-2.6,7.7-6.2c1.4,2,3.8,3.3,6.4,3.3c3.3,0,6.1-2,7.3-4.8c2.3,0.8,5.3,1.5,9.3,1.8c2.9,0.3,12.3,2.5,12.6,4.4
		c0.4,2.2,1.5,5.1,1.9,6.2l0.1,0.3c0.7,1.9,1.5,5.2,1,6.1c-0.3,0.6-3.1,2.4-4.5,2.4c-0.5,0-1.2,0-2,0.1c1.6-1.4,2.6-3.5,2.6-5.8
		c0-4.3-3.5-7.9-7.9-7.9s-7.9,3.5-7.9,7.9c0,3,1.6,5.5,4,6.9c-0.4,0-1,0.1-1.5,0.1c-1.3-1-3-1.6-4.8-1.6c-2,0-3.8,0.7-5.2,2
		c-1.8,0-3.5,0.1-5,0.1c-0.9-3.4-3.9-5.9-7.6-5.9c-2,0-3.8,0.7-5.1,1.9c0.1-0.4,0.1-0.7,0.1-1.1c0-4.3-3.5-7.9-7.9-7.9
		s-7.9,3.5-7.9,7.9s3.5,7.9,7.9,7.9c2,0,3.8-0.7,5.1-1.9c-0.1,0.4-0.1,0.7-0.1,1.1c0,4.3,3.5,7.9,7.9,7.9c4.1,0,7.4-3.1,7.8-7
		c0.6,0.1,1.2,0.2,1.7,0.3c0.3,0,0.5,0.1,0.8,0.1c-0.3,0.8-0.4,1.6-0.4,2.4c0,4.3,3.5,7.9,7.9,7.9s7.9-3.5,7.9-7.9
		c0-1.1-0.2-2.2-0.7-3.1c0.4-0.1,0.8-0.1,1.3-0.2c6.8-0.7,19.3-2,22.1,0.2l0.1,0.1c13.2,8.5,17.3,12.1,18.1,15.2
		c1.2,4.3,3.9,22.1,0.7,37.5c-1,4.9-5,7.9-8,11.1c-0.6,0.6-0.1,1.6,0.7,1.6h33.5c0.9,0,1.3-1.1,0.6-1.7c-4-3.5-9-10.9-8.7-28.6
		c0-2,0-4.3-0.1-6.1c0-1.1,0-1.9,0-2.4l0,0c0,0-0.3-3.7,1-7.4c2.1-5.6,13.1-18,20.3-22.8c0.4-0.3,0.9-0.6,1.4-0.9
		c0.6-0.4,1.1-0.6,1.5-0.7c3.6-1.7,6.1-2.6,10.5-1.8c-2.5,1.3-4.2,3.9-4.2,7c0,4.3,3.5,7.9,7.9,7.9s7.9-3.5,7.9-7.9
		c0-0.7-0.1-1.4-0.3-2c3,1.7,5.9,3.2,8.6,3.4c1.1,0.1,2.4,0.1,3.7,0.1c0.3,4.1,3.7,7.3,7.8,7.3c4.3,0,7.7-3.4,7.8-7.6
		c1.4,1.2,3.2,2,5.2,2c4.3,0,7.9-3.5,7.9-7.9S242.6,104.2,238.2,104.2z"/>
</g>
</svg>
